<svg width="151" height="21" viewBox="0 0 151 21" fill="none" xmlns="http://www.w3.org/2000/svg">
<path d="M0.751809 17.687L9.98845 4.03281L0.637068 4.66388L1.32551 0.705321L7.86575 1.02086L14.4347 0.676634L14.0044 3.74596L4.73906 17.4575L14.8076 16.8264L14.2339 20.785L7.32073 20.4694L0.26416 20.785L0.751809 17.687Z" fill="#222076"/>
<path d="M29.0639 20.7563L27.6583 15.1627H20.8026L19.2822 20.6129L15.6105 20.326L18.1348 13.3555L21.9787 1.02086L27.1133 0.647949L30.8137 12.9252L33.1946 20.1252L29.0639 20.7563ZM24.5316 4.37703H24.1587L21.6918 12.122H26.7978L24.5316 4.37703Z" fill="#222076"/>
<path d="M42.1036 17.0272H42.4478L43.8821 12.0934L46.894 0.647949L50.3649 1.16428L46.9514 12.5523L44.7139 20.3834L39.4072 20.7563L37.3705 13.0973L34.043 1.36508L38.1163 0.647949L40.7267 11.7204L42.1036 17.0272Z" fill="#222076"/>
<path d="M58.96 20.9284C57.6022 20.9284 55.642 20.8232 53.0795 20.6129L53.4237 13.6424L53.0795 0.82006H60.7385C63.3201 0.82006 65.3377 1.59456 66.791 3.14356C68.2444 4.69257 68.9711 6.84396 68.9711 9.59774C68.9711 13.0782 68.0723 15.8416 66.2747 17.8878C64.4771 19.9149 62.0389 20.9284 58.96 20.9284ZM59.7058 3.91807C58.4436 3.91807 57.5544 3.92763 57.0381 3.94675L56.7512 13.1547L56.952 17.8017C58.5584 17.9165 59.6389 17.9738 60.1934 17.9738C61.7042 17.9738 62.8898 17.3619 63.7504 16.138C64.6301 14.9141 65.0699 13.1356 65.0699 10.8025C65.0699 8.46946 64.6396 6.73878 63.7791 5.6105C62.9377 4.48221 61.5799 3.91807 59.7058 3.91807Z" fill="#222076"/>
<path d="M83.7171 20.7563L82.3115 15.1627H75.4558L73.9355 20.6129L70.2637 20.326L72.788 13.3555L76.6319 1.02086L81.7665 0.647949L85.4669 12.9252L87.8478 20.1252L83.7171 20.7563ZM79.1848 4.37703H78.8119L76.345 12.122H81.451L79.1848 4.37703Z" fill="#222076"/>
<path d="M105.735 0.76269L105.362 13.1547L105.678 19.9818L102.293 20.6989L93.7448 6.87264V13.1547L94.1464 20.6129H90.5608L90.905 13.6424L90.5608 0.906116L94.003 0.734006L102.523 14.7611L102.236 1.19297L105.735 0.76269Z" fill="#222076"/>
<path d="M110.395 20.8997C109.611 20.8997 108.827 20.8137 108.043 20.6416L108.961 17.1993C109.592 17.4097 110.204 17.5149 110.797 17.5149C111.963 17.5149 112.547 16.5491 112.547 14.6177L112.145 1.39377L116.218 0.676634L115.817 13.6137C115.817 15.6981 115.31 17.4384 114.296 18.8344C113.283 20.2113 111.983 20.8997 110.395 20.8997Z" fill="#222076"/>
<path d="M124.524 0.676634L124.122 13.1547L124.467 20.6129H120.451L120.795 13.6424L120.451 1.39377L124.524 0.676634Z" fill="#222076"/>
<path d="M140.695 20.7563L139.29 15.1627H132.434L130.914 20.6129L127.242 20.326L129.766 13.3555L133.61 1.02086L138.745 0.647949L142.445 12.9252L144.826 20.1252L140.695 20.7563ZM136.163 4.37703H135.79L133.323 12.122H138.429L136.163 4.37703Z" fill="#222076"/>
<path d="M146.105 18.691C146.105 18.079 146.325 17.5436 146.765 17.0846C147.224 16.6065 147.769 16.3675 148.4 16.3675C149.643 16.3675 150.264 16.9985 150.264 18.2607C150.264 18.9874 150.035 19.5898 149.576 20.0679C149.136 20.5459 148.61 20.785 147.998 20.785C147.405 20.785 146.937 20.5937 146.592 20.2113C146.267 19.8097 146.105 19.3029 146.105 18.691Z" fill="#222076"/>
</svg>
